<svg width="45" height="45" viewBox="0 0 45 45" fill="none" xmlns="http://www.w3.org/2000/svg">
<path d="M22.4018 0.563232C16.4539 0.563232 15.7075 0.589212 13.3714 0.695449C11.04 0.802131 9.44852 1.17098 8.056 1.71218C6.61559 2.27112 5.39372 3.01883 4.17643 4.23568C2.95822 5.4521 2.20994 6.67304 1.64874 8.11193C1.10578 9.50387 0.736204 11.0946 0.631281 13.4234C0.526803 15.7577 0.49942 16.5041 0.49942 22.4475C0.49942 28.3909 0.52589 29.1345 0.631726 31.4688C0.738964 33.7986 1.10808 35.3888 1.64919 36.7803C2.20902 38.2197 2.95729 39.4406 4.17505 40.657C5.39192 41.8743 6.61377 42.6239 8.05326 43.1828C9.44667 43.724 11.0386 44.0928 13.3696 44.1995C15.7057 44.3057 16.4517 44.3317 22.399 44.3317C28.3473 44.3317 29.0915 44.3058 31.4275 44.1995C33.759 44.0928 35.3523 43.724 36.7457 43.1828C38.1856 42.6239 39.4057 41.8743 40.6225 40.657C41.8407 39.4406 42.589 38.2197 43.1502 36.7808C43.6886 35.3888 44.0582 33.7981 44.1677 31.4693C44.2726 29.135 44.3 28.3909 44.3 22.4475C44.3 16.5041 44.2726 15.7582 44.1677 13.4239C44.0582 11.0941 43.6886 9.50387 43.1502 8.1124C42.589 6.67304 41.8407 5.45208 40.6225 4.23568C39.4043 3.01836 38.1861 2.27065 36.7443 1.71216C35.3482 1.17098 33.7558 0.802131 31.4243 0.695449C29.0883 0.589212 28.3445 0.563232 22.3949 0.563232H22.4018ZM20.4371 4.50697C21.0202 4.50605 21.6708 4.50697 22.4018 4.50697C28.2492 4.50697 28.9423 4.52794 31.2514 4.63279C33.3867 4.73037 34.5456 5.08688 35.3176 5.38642C36.3396 5.78307 37.0683 6.25724 37.8343 7.02318C38.6008 7.78915 39.0753 8.51862 39.4732 9.53987C39.773 10.3104 40.1302 11.4684 40.2274 13.6022C40.3323 15.9091 40.3552 16.6021 40.3552 22.4425C40.3552 28.2828 40.3323 28.9759 40.2274 31.2828C40.1298 33.4165 39.773 34.5746 39.4732 35.3451C39.0763 36.3663 38.6008 37.0935 37.8343 37.859C37.0678 38.625 36.3401 39.0991 35.3176 39.4958C34.5465 39.7967 33.3867 40.1523 31.2514 40.2499C28.9427 40.3547 28.2492 40.3775 22.4018 40.3775C16.5539 40.3775 15.8608 40.3547 13.5521 40.2499C11.4168 40.1514 10.2579 39.7949 9.48548 39.4953C8.46345 39.0987 7.73342 38.6245 6.96692 37.8586C6.2004 37.0926 5.7259 36.365 5.32802 35.3432C5.02826 34.5727 4.67101 33.4147 4.57384 31.281C4.46889 28.974 4.4479 28.281 4.4479 22.437C4.4479 16.593 4.46889 15.9036 4.57384 13.5967C4.67148 11.4629 5.02826 10.3049 5.32802 9.5335C5.72496 8.51223 6.2004 7.78276 6.96692 7.01682C7.73342 6.25085 8.46345 5.77671 9.48548 5.37914C10.2575 5.07822 11.4168 4.72262 13.5521 4.62458C15.5724 4.53339 16.3554 4.50605 20.4371 4.50147L20.4371 4.50697ZM34.0921 8.14065C32.6412 8.14065 31.464 9.31557 31.464 10.7658C31.464 12.2157 32.6412 13.392 34.0921 13.392C35.543 13.392 36.7201 12.2157 36.7201 10.7658C36.7201 9.31602 35.543 8.13976 34.0921 8.13976L34.0921 8.14065ZM22.4018 11.209C16.1907 11.209 11.1549 16.241 11.1549 22.4475C11.1549 28.654 16.1907 33.6837 22.4018 33.6837C28.6128 33.6837 33.6468 28.654 33.6468 22.4475C33.6468 16.241 28.6124 11.209 22.4013 11.209H22.4018ZM22.4018 15.1527C26.4333 15.1527 29.7019 18.4185 29.7019 22.4475C29.7019 26.476 26.4333 29.7422 22.4018 29.7422C18.3698 29.7422 15.1016 26.476 15.1016 22.4475C15.1016 18.4185 18.3698 15.1527 22.4018 15.1527Z" fill="white"/>
</svg>
