<svg width="72" height="72" viewBox="0 0 72 72" fill="none" xmlns="http://www.w3.org/2000/svg">
<g clip-path="url(#clip0_50_134)">
<path fill-rule="evenodd" clip-rule="evenodd" d="M64 72H8C3.58172 72 0 68.4183 0 64V8C0 3.58172 3.58172 0 8 0H64C68.4183 0 72 3.58172 72 8V64C72 68.4183 68.4183 72 64 72ZM51.3156 62H62V40.0512C62 30.7645 56.7357 26.2742 49.3826 26.2742C42.026 26.2742 38.9301 32.0029 38.9301 32.0029V27.3333H28.6333V62H38.9301V43.8021C38.9301 38.9261 41.1746 36.0245 45.4707 36.0245C49.4198 36.0245 51.3156 38.8128 51.3156 43.8021V62ZM10 16.397C10 19.9297 12.8421 22.794 16.3493 22.794C19.8566 22.794 22.697 19.9297 22.697 16.397C22.697 12.8644 19.8566 10 16.3493 10C12.8421 10 10 12.8644 10 16.397ZM21.7694 62H11.0326V27.3333H21.7694V62Z" fill="#F5C012"/>
</g>
<defs>
<clipPath id="clip0_50_134">
<rect width="72" height="72" fill="white"/>
</clipPath>
</defs>
</svg>
