<svg width="48" height="28" viewBox="0 0 48 28" fill="none" xmlns="http://www.w3.org/2000/svg">
<path d="M41.6475 1.4744H47.9952V1.814C47.9952 5.7325 47.9952 9.6511 47.9952 13.5696C47.9952 14.7333 48.0097 15.9013 47.9225 17.0605C47.6403 20.8984 44.6497 24.0373 40.8345 24.5515C40.4243 24.6041 40.0115 24.6335 39.5981 24.6395C39.5165 24.6379 39.4354 24.6536 39.3603 24.6854C39.2851 24.7172 39.2174 24.7645 39.1617 24.8242C36.5268 27.4358 32.2199 27.918 29.1377 25.9369C27.4003 24.8191 26.3559 23.1827 25.7195 21.2562C25.2388 19.8053 25.065 18.302 25.057 16.7871C25.0185 11.7442 25.0185 6.6984 25.0039 1.6525C25.0039 1.6067 25.0105 1.5602 25.017 1.4816H31.3545V1.7725C31.3588 5.9449 31.3545 10.1173 31.3726 14.2889C31.3777 15.6307 31.3559 16.9798 31.6417 18.302C32.0781 20.3267 32.9937 22.0591 34.7283 23.2736C36.0643 24.2089 37.5726 24.6024 39.1886 24.6104C39.3132 24.5949 39.4278 24.5343 39.5108 24.4402C40.5748 23.2889 41.1748 21.9136 41.4526 20.3835C41.6774 19.1471 41.6708 17.8969 41.6665 16.6475C41.6616 12.6819 41.6555 8.7165 41.6483 4.7515C41.6483 3.774 41.6483 2.7965 41.6483 1.8191L41.6475 1.4744Z" fill="#820AD1"/>
<path d="M22.9871 26.5163H16.646V26.1978C16.6416 22.0254 16.646 17.8538 16.6286 13.6814C16.6235 12.3396 16.6496 10.9905 16.3595 9.6691C15.8926 7.5411 14.8984 5.7549 13.0198 4.5534C11.75 3.7418 10.3384 3.4058 8.84528 3.3898C8.7105 3.4019 8.58527 3.4645 8.49474 3.5651C7.3311 4.8233 6.68528 6.3287 6.5071 8.0131C6.38056 9.2051 6.37256 10.4131 6.3471 11.6116C6.32528 12.6167 6.36165 13.6225 6.36237 14.6276C6.36237 18.4894 6.36237 22.3515 6.36237 26.2138V26.5076H0.00892053V26.1818C0.00528417 22.1316 -0.00635257 18.0822 0.00455652 14.032C0.00455652 12.8785 0.0045566 11.7163 0.129648 10.5731C0.525284 7.0465 3.2351 4.1731 6.72383 3.5185C7.27437 3.4153 7.84092 3.3927 8.40237 3.3563C8.48361 3.3562 8.56401 3.3399 8.63891 3.3084C8.71381 3.2769 8.78173 3.2309 8.83874 3.1731C11.6366 0.398501 16.2729 0.0487009 19.3456 2.3942C20.974 3.6371 21.9071 5.3331 22.446 7.2727C22.8744 8.8167 22.9616 10.4 22.9689 11.9913C22.99 16.7643 22.9929 21.5374 23.0024 26.3112C23.0031 26.3745 22.9936 26.4349 22.9871 26.5163Z" fill="#820AD1"/>
</svg>
