<svg width="32" height="32" viewBox="0 0 32 32" fill="none" xmlns="http://www.w3.org/2000/svg">
<g clip-path="url(#clip0_51_141)">
<path d="M0 15.571C0.001 17.273 1.383 18.652 3.085 18.654L20.613 18.652L15.875 23.391C14.592 24.675 14.526 26.692 15.73 27.898C16.935 29.099 18.952 29.036 20.237 27.752L30.133 17.854C31.42 16.571 31.485 14.553 30.279 13.348C30.246 13.319 30.211 13.297 30.179 13.268C30.138 13.225 30.109 13.174 30.066 13.129L20.302 3.367C19.034 2.101 17.032 2.051 15.828 3.256C14.623 4.461 14.675 6.464 15.939 7.732L20.694 12.486H3.085C1.381 12.485 0 13.865 0 15.571Z" fill="#F5C012"/>
</g>
<defs>
<clipPath id="clip0_51_141">
<rect width="31.143" height="31.143" fill="white"/>
</clipPath>
</defs>
</svg>
