<svg width="211" height="228" viewBox="0 0 211 228" fill="none" xmlns="http://www.w3.org/2000/svg">
<path d="M167.441 141.476C154.192 141.476 142.331 147.52 134.461 156.994L83.267 127.928C84.859 123.448 85.734 118.631 85.734 113.611C85.734 108.592 84.859 103.775 83.267 99.295L134.457 70.222C142.326 79.699 154.189 85.745 167.439 85.745C191.073 85.745 210.301 66.51 210.301 42.866C210.303 19.229 191.075 0 167.441 0C143.804 0 124.574 19.229 124.574 42.865C124.574 47.885 125.448 52.703 127.041 57.184L75.848 86.258C67.979 76.786 56.119 70.744 42.873 70.744C19.233 70.744 0 89.973 0 113.61C0 137.246 19.233 156.475 42.873 156.475C56.119 156.475 67.978 150.433 75.847 140.962L127.041 170.029C125.448 174.51 124.573 179.329 124.573 184.35C124.573 207.986 143.803 227.215 167.44 227.215C191.074 227.215 210.302 207.985 210.302 184.35C210.303 160.71 191.075 141.476 167.441 141.476Z" fill="#F5C012"/>
</svg>
